<?xml version="1.0" encoding="utf-8"?>
<!-- Generator: Adobe Illustrator 18.0.0, SVG Export Plug-In . SVG Version: 6.00 Build 0)  -->
<!DOCTYPE svg PUBLIC "-//W3C//DTD SVG 1.1//EN" "http://www.w3.org/Graphics/SVG/1.1/DTD/svg11.dtd">
<svg version="1.1" xmlns="http://www.w3.org/2000/svg" xmlns:xlink="http://www.w3.org/1999/xlink" x="0px" y="0px"
	 viewBox="0 0 500 500" enable-background="new 0 0 500 500" xml:space="preserve">
<g id="Guides">
</g>
<g id="Finder" display="none">
	<rect x="35.6" y="35.6" display="inline" fill="#FFFFFF" width="428.8" height="428.8"/>
	<polygon display="inline" fill="#5AA5DA" points="285.6,250 285.6,464.4 215.3,464.4 215.3,464.4 35.6,464.4 35.6,35.6 215.3,35.6 
		215.3,250 	"/>
</g>
<g id="Finder-Circle">
	<path fill="#FFFFFF" d="M464.4,235.5c-1.6-23.5-6.9-46-15.5-66.8c-10.9-26.6-27.1-50.6-47.1-70.6C363,59.5,309.6,35.6,250.5,35.6h0
		c-59.2,0-112.8,24-151.6,62.8c-19.9,19.9-35.9,43.8-46.8,70.3c-10.3,25.1-16,52.5-16,81.3c0,117.9,95.2,213.6,213,214.4h2.9
		c0,0,0,0,0,0c112.9-0.7,205-88.7,212.5-199.9V235.5z"/>
	<path fill="#5AA5DA" d="M248.6,464.4h2.9c0,0,0,0,0,0c11.6-0.1,23.1-1.1,34.2-3V250h-70.4V38.4c-45.3,7.4-85.8,28.9-116.9,60
		c-19.9,19.9-35.9,43.8-46.8,70.3c-10.3,25.1-16,52.5-16,81.3C35.6,367.9,130.8,463.6,248.6,464.4z"/>
</g>
</svg>
