<?xml version="1.0" encoding="utf-8"?>
<!-- Generator: Adobe Illustrator 18.0.0, SVG Export Plug-In . SVG Version: 6.00 Build 0)  -->
<!DOCTYPE svg PUBLIC "-//W3C//DTD SVG 1.1//EN" "http://www.w3.org/Graphics/SVG/1.1/DTD/svg11.dtd">
<svg version="1.1" xmlns="http://www.w3.org/2000/svg" xmlns:xlink="http://www.w3.org/1999/xlink" x="0px" y="0px"
	 viewBox="0 0 512 512" enable-background="new 0 0 512 512" xml:space="preserve">
<g id="Guides">
</g>
<g id="Square">
	<rect x="15" y="15" fill="#FFFFFF" width="482" height="482"/>
	<polygon fill="#5AA5DA" points="296.1,256 296.1,497 217,497 217,497 15,497 15,15 217,15 217,256 	"/>
</g>
<g id="Circle" display="none">
	<path display="inline" fill="#00A14B" d="M479,164.6c-12.3-29.9-30.4-56.9-53-79.4C382.5,41.8,322.4,15,256,15
		c-66.6,0-126.8,27-170.4,70.6c-22.4,22.4-40.4,49.2-52.6,79c-11.6,28.2-18,59.1-18,91.4c0,133.1,107.9,241,241,241
		c0.5,0,1.1,0,1.6,0C390,496.1,497,388.6,497,256C497,223.6,490.6,192.8,479,164.6z"/>
</g>
</svg>
