<?xml version="1.0" encoding="utf-8"?>
<!-- Generator: Adobe Illustrator 18.0.0, SVG Export Plug-In . SVG Version: 6.00 Build 0)  -->
<!DOCTYPE svg PUBLIC "-//W3C//DTD SVG 1.1//EN" "http://www.w3.org/Graphics/SVG/1.1/DTD/svg11.dtd">
<svg version="1.1" xmlns="http://www.w3.org/2000/svg" xmlns:xlink="http://www.w3.org/1999/xlink" x="0px" y="0px"
	 viewBox="0 0 512 512" enable-background="new 0 0 512 512" xml:space="preserve">
<g id="Guides">
</g>
<g id="Square" display="none">
	<rect x="15" y="15" display="inline" fill="#FFFFFF" width="482" height="482"/>
	<polygon display="inline" fill="#5AA5DA" points="296.1,256 296.1,497 217,497 217,497 15,497 15,15 217,15 217,256 	"/>
</g>
<g id="Layer_4">
	<path fill="#5AA5DA" d="M255.1,497h1.7c0.3,0,0.5,0,0.8,0c13.1-0.1,25.9-1.2,38.4-3.3V256H217V18.2c-50.9,8.3-96.5,32.5-131.4,67.4
		c-22.4,22.4-40.4,49.2-52.6,79c-11.6,28.2-18,59.1-18,91.4C15,388.8,122.4,496.5,255.1,497z"/>
</g>
</svg>
