<?xml version="1.0" encoding="utf-8"?>
<!-- Generator: Adobe Illustrator 18.0.0, SVG Export Plug-In . SVG Version: 6.00 Build 0)  -->
<!DOCTYPE svg PUBLIC "-//W3C//DTD SVG 1.1//EN" "http://www.w3.org/Graphics/SVG/1.1/DTD/svg11.dtd">
<svg version="1.1" xmlns="http://www.w3.org/2000/svg" xmlns:xlink="http://www.w3.org/1999/xlink" x="0px" y="0px"
	 viewBox="0 0 500 500" enable-background="new 0 0 500 500" xml:space="preserve">
<g id="Guides">
</g>
<g id="Finder">
	<rect x="35.6" y="35.6" fill="#FFFFFF" width="428.8" height="428.8"/>
	<polygon fill="#5AA5DA" points="285.6,250 285.6,464.4 215.3,464.4 215.3,464.4 35.6,464.4 35.6,35.6 215.3,35.6 215.3,250 	"/>
</g>
<g id="Finder-Circle">
	<path fill="#5AA5DA" d="M248.6,464.4h2.9c0,0,0,0,0,0c11.6-0.1,23.1-1.1,34.2-3V250h-70.4V38.4c-45.3,7.4-85.8,28.9-116.9,60
		c-19.9,19.9-35.9,43.8-46.8,70.3c-10.3,25.1-16,52.5-16,81.3C35.6,367.9,130.8,463.6,248.6,464.4z"/>
</g>
</svg>
