<?xml version="1.0" encoding="utf-8"?>
<!-- Generator: Adobe Illustrator 18.0.0, SVG Export Plug-In . SVG Version: 6.00 Build 0)  -->
<!DOCTYPE svg PUBLIC "-//W3C//DTD SVG 1.1//EN" "http://www.w3.org/Graphics/SVG/1.1/DTD/svg11.dtd">
<svg version="1.1" xmlns="http://www.w3.org/2000/svg" xmlns:xlink="http://www.w3.org/1999/xlink" x="0px" y="0px"
	 viewBox="0 0 512 512" enable-background="new 0 0 512 512" xml:space="preserve">
<g id="Guides">
</g>
<g id="Layer_4">
	<path fill="#10A2DC" d="M491.6,321.4c-3.6-12.3-8.8-23.6-15.6-34c2-12.2,2.9-23.9,2.9-35.1c0-30.4-5.8-58.9-17.4-85.5
		c-11.6-26.5-27.6-49.9-47.9-70c-20.3-20.1-43.9-35.9-70.9-47.3c-27-11.5-56-17.3-86.8-17.3c-5.8,0-11.7,0.2-17.6,0.6
		c-5.8,0.5-11.8,1.1-17.6,2c-10.2-6.3-21.3-11.2-33.2-14.6C175.8,16.7,163.3,15,150,15c-18.5,0-35.9,3.4-52.3,10.4
		c-16.4,7-30.8,16.5-43.2,28.7C42.2,66.2,32.6,80.4,25.6,96.8c-7,16.4-10.6,33.9-10.6,52.4c0,24.8,7.2,48,21.6,69.6
		c-0.8,5.5-1.5,10.9-2,16.3c-0.6,5.4-0.9,11.1-0.9,17.2c0,31.4,5.8,61,17.4,88.6c11.5,27.6,27.4,51.8,47.7,72.3
		c20.3,20.6,43.9,36.7,70.8,48.6c27,11.8,55.8,17.8,86.5,17.8c5.9,0,11.7-0.2,17.7-0.6c5.9-0.5,11.7-1.1,17.6-2
		c20.9,13.4,44.5,20.1,70.8,20.1c18.5,0,35.8-3.5,52.3-10.7c16.5-7.2,30.8-17,43.2-29.6c12.3-12.7,22-27.3,29-43.9
		c7-16.6,10.5-34.4,10.5-53.2C497,346.4,495.2,333.7,491.6,321.4z"/>
</g>
<g id="Layer_3">
	<circle fill="#FFFFFF" cx="256.3" cy="256.3" r="51.3"/>
</g>
</svg>
