<?xml version="1.0" encoding="utf-8"?>
<!-- Generator: Adobe Illustrator 18.0.0, SVG Export Plug-In . SVG Version: 6.00 Build 0)  -->
<!DOCTYPE svg PUBLIC "-//W3C//DTD SVG 1.1//EN" "http://www.w3.org/Graphics/SVG/1.1/DTD/svg11.dtd">
<svg version="1.1" xmlns="http://www.w3.org/2000/svg" xmlns:xlink="http://www.w3.org/1999/xlink" x="0px" y="0px"
	 viewBox="0 0 500 500" enable-background="new 0 0 500 500" xml:space="preserve">
<g id="Guides">
</g>
<g id="Square" display="none">
	<rect x="35.6" y="35.6" display="inline" fill="#F1F2F2" width="428.8" height="428.8"/>
	
		<text transform="matrix(1 0 0 1 159.2063 345.0798)" display="inline" fill="#F26522" font-family="'Istok-Bold'" font-size="287.2875">S</text>
</g>
<g id="Circle">
	<path fill="#F1F2F2" d="M448.4,168.7c-10.9-26.6-27.1-50.6-47.1-70.6C362.5,59.5,309,35.6,250,35.6c-59.2,0-112.8,24-151.6,62.8
		c-19.9,19.9-35.9,43.8-46.8,70.3c-10.3,25.1-16,52.5-16,81.3c0,118.4,96,214.4,214.4,214.4c0.5,0,1,0,1.4,0
		c117.8-0.8,213-96.5,213-214.4C464.4,221.2,458.7,193.8,448.4,168.7z"/>
	<text transform="matrix(1 0 0 1 159.2063 345.0798)" fill="#F26522" font-family="'Istok-Bold'" font-size="287.2875">S</text>
</g>
</svg>
