<?xml version="1.0" encoding="utf-8"?>
<!-- Generator: Adobe Illustrator 18.0.0, SVG Export Plug-In . SVG Version: 6.00 Build 0)  -->
<!DOCTYPE svg PUBLIC "-//W3C//DTD SVG 1.1//EN" "http://www.w3.org/Graphics/SVG/1.1/DTD/svg11.dtd">
<svg version="1.1" xmlns="http://www.w3.org/2000/svg" xmlns:xlink="http://www.w3.org/1999/xlink" x="0px" y="0px"
	 viewBox="0 0 500 500" enable-background="new 0 0 500 500" xml:space="preserve">
<g id="Guides">
</g>
<g id="Square" display="none">
	<rect x="35.6" y="35.6" display="inline" fill="#F1F2F2" width="428.8" height="428.8"/>
	
		<text transform="matrix(1 0 0 1 159.2063 345.0798)" display="inline" fill="#F26522" font-family="'Istok-Bold'" font-size="287.2875">S</text>
</g>
<g id="Circle">
	<path fill="#F1F2F2" d="M483.1,155.1c-12.8-31.1-31.7-59-55.2-82.3C382.6,27.8,320,0,250.9,0c-69.3,0-132,28-177.4,73.2
		c-23.3,23.2-42.1,51-54.8,81.9C6.7,184.4,0,216.4,0,249.9c0,138,112.3,249.9,250.9,249.9c0.6,0,1.1,0,1.7,0
		c137.8-0.9,249.2-112.4,249.2-249.9C501.8,216.4,495.2,184.4,483.1,155.1z"/>
	<text transform="matrix(1.004 0 0 1 144.6617 360.7355)" fill="#F26522" font-family="'Istok-Bold'" font-size="334.8534">S</text>
</g>
</svg>
