<?xml version="1.0" encoding="utf-8"?>
<!-- Generator: Adobe Illustrator 18.0.0, SVG Export Plug-In . SVG Version: 6.00 Build 0)  -->
<!DOCTYPE svg PUBLIC "-//W3C//DTD SVG 1.1//EN" "http://www.w3.org/Graphics/SVG/1.1/DTD/svg11.dtd">
<svg version="1.1" xmlns="http://www.w3.org/2000/svg" xmlns:xlink="http://www.w3.org/1999/xlink" x="0px" y="0px"
	 viewBox="0 0 512 512" enable-background="new 0 0 512 512" xml:space="preserve">
<g id="Guides">
</g>
<g id="Square" display="none">
	<rect x="30" y="29.2" display="inline" fill="#F1F2F2" width="452.8" height="452.8"/>
	<g display="inline">
		<path fill="#F26522" d="M182.2,337.1c-6-4.5-7.4-9.1-4.3-13.7l11.2-16.7c3.7-5.5,9-5.8,16.1-0.9c5.4,3.8,12.5,7.6,21.2,11.6
			c8.7,4,17.9,6,27.6,6c6.8,0,13.3-0.8,19.6-2.3c6.3-1.5,11.1-4.5,14.3-9c3.3-4.4,4.9-9.7,4.9-15.7c0-4.3-0.7-8.1-2.2-11.4
			c-1.5-3.3-3.8-6-7.1-8.1c-3.3-2.1-6.7-3.9-10.1-5.3c-6.1-2.6-13.7-5.2-23-7.8c-9.2-2.6-18.3-5.7-27.3-9.3c-8-3-15.4-7.2-22-12.4
			c-6.7-5.3-11.8-11.2-15.5-17.8c-3.7-6.6-5.5-15.5-5.5-26.8c0-13.4,4.3-24.8,13-34.4c8.7-9.5,18.7-15.6,30-18.3
			c11.3-2.7,22.7-4,34.2-4c11.4,0,23.2,1.7,35.3,5.2c12.1,3.5,21.3,7.8,27.5,13c6.1,5.1,7.6,9.7,4.5,13.9l-11.7,15.7
			c-4,5.4-9.3,5.8-15.9,1.3c-4.3-2.9-10.1-6.1-17.5-9.7c-7.4-3.6-15.1-5.3-23.1-5.3c-5.7,0-10.9,0.5-15.7,1.4c-4.8,1-9,3.3-12.7,6.9
			c-3.7,3.7-5.5,8.2-5.5,13.6c0,5.2,1.4,9.4,4.1,12.6c2.7,3.2,5.7,5.6,9,7.2c3.3,1.6,6.6,2.9,10,4c10.4,3.4,19.8,6.3,28,8.9
			c8.2,2.6,15.8,5.4,22.8,8.4c9.7,4.3,17.1,8.7,22.2,13c5.1,4.3,9.3,10.3,12.7,17.8c3.3,7.5,5,16.5,5,26.9
			c0,15.4-4.9,28.1-14.8,38.2c-9.9,10.1-20.8,16.6-32.8,19.5c-12,2.9-23.7,4.4-35.2,4.4c-16.8,0-30.5-1.6-41-4.8
			C201.7,349.4,191.7,344.2,182.2,337.1z"/>
	</g>
</g>
<g id="Circle">
	<path fill="#F1F2F2" d="M479.4,164.6c-12.3-29.9-30.4-56.9-53-79.4C382.8,41.8,322.7,15,256.3,15c-66.6,0-126.8,27-170.4,70.6
		c-22.4,22.4-40.4,49.2-52.6,79c-11.6,28.2-18,59.1-18,91.4c0,133.1,107.9,241,241,241c0.5,0,1.1,0,1.6,0
		c132.4-0.9,239.4-108.4,239.4-241C497.3,223.6,490.9,192.8,479.4,164.6z"/>
	<g>
		<path fill="#F26522" d="M177.7,343.8c-6.4-4.8-7.9-9.7-4.6-14.6l11.9-17.9c3.9-5.9,9.6-6.2,17.2-0.9c5.8,4,13.3,8.1,22.6,12.4
			c9.3,4.3,19.1,6.4,29.4,6.4c7.2,0,14.2-0.8,20.9-2.5c6.7-1.6,11.8-4.8,15.3-9.5c3.5-4.7,5.3-10.3,5.3-16.8c0-4.6-0.8-8.7-2.3-12.2
			c-1.5-3.5-4.1-6.4-7.6-8.6c-3.5-2.3-7.1-4.2-10.8-5.7c-6.5-2.8-14.7-5.6-24.5-8.3c-9.8-2.8-19.6-6.1-29.1-10
			c-8.6-3.2-16.4-7.6-23.5-13.3c-7.1-5.6-12.6-12-16.5-19c-3.9-7-5.9-16.6-5.9-28.6c0-14.3,4.6-26.5,13.9-36.6
			c9.3-10.2,19.9-16.7,32-19.6c12.1-2.9,24.2-4.3,36.5-4.3c12.2,0,24.7,1.8,37.6,5.5c12.9,3.7,22.7,8.3,29.3,13.9
			c6.5,5.4,8.1,10.4,4.8,14.8l-12.5,16.8c-4.2,5.7-9.9,6.2-17,1.4c-4.5-3.1-10.7-6.5-18.6-10.3c-7.9-3.8-16.1-5.7-24.7-5.7
			c-6.1,0-11.7,0.5-16.8,1.5c-5.1,1-9.6,3.5-13.5,7.4c-3.9,3.9-5.9,8.7-5.9,14.5c0,5.5,1.4,10,4.3,13.5c2.9,3.4,6.1,6,9.6,7.7
			c3.5,1.7,7.1,3.1,10.7,4.2c11.1,3.6,21.1,6.7,29.8,9.5c8.8,2.7,16.8,5.7,24.3,9c10.3,4.6,18.2,9.2,23.6,13.9
			c5.5,4.6,10,10.9,13.5,18.9c3.6,8,5.3,17.6,5.3,28.6c0,16.4-5.3,30-15.8,40.7c-10.5,10.7-22.2,17.7-35,20.8
			c-12.8,3.1-25.3,4.7-37.5,4.7c-17.9,0-32.5-1.7-43.7-5.2C198.4,356.9,187.8,351.4,177.7,343.8z"/>
	</g>
</g>
</svg>
